<svg width="16" height="16" viewBox="0 0 16 16" fill="none" xmlns="http://www.w3.org/2000/svg">
<path d="M0.620679 13.1852C0.135043 13.6708 0.135043 14.4582 0.620679 14.9438C1.10631 15.4295 1.89369 15.4295 2.37932 14.9438L0.620679 13.1852ZM15.179 1.62903C15.179 0.942238 14.6223 0.385482 13.9355 0.385482H2.74355C2.05676 0.385482 1.5 0.942238 1.5 1.62903C1.5 2.31582 2.05676 2.87258 2.74355 2.87258L12.6919 2.87258L12.6919 12.821C12.6919 13.5078 13.2487 14.0645 13.9355 14.0645C14.6223 14.0645 15.179 13.5078 15.179 12.821V1.62903ZM2.37932 14.9438L14.8148 2.50835L13.0562 0.749709L0.620679 13.1852L2.37932 14.9438Z" fill="black"/>
</svg>
