<svg width="11" height="8" viewBox="0 0 11 8" fill="none" xmlns="http://www.w3.org/2000/svg">
<path d="M10.7038 1.16775C10.5164 0.981495 10.263 0.876953 9.99881 0.876953C9.73462 0.876953 9.48117 0.981495 9.29381 1.16775L5.70381 4.70775L2.16381 1.16775C1.97644 0.981495 1.72299 0.876953 1.45881 0.876953C1.19462 0.876953 0.941169 0.981495 0.753806 1.16775C0.660078 1.26071 0.585683 1.37131 0.534914 1.49317C0.484146 1.61503 0.458008 1.74573 0.458008 1.87775C0.458008 2.00976 0.484146 2.14046 0.534914 2.26232C0.585683 2.38418 0.660078 2.49478 0.753806 2.58775L4.99381 6.82775C5.08677 6.92147 5.19737 6.99587 5.31923 7.04664C5.44109 7.09741 5.57179 7.12354 5.70381 7.12354C5.83582 7.12354 5.96652 7.09741 6.08838 7.04664C6.21024 6.99587 6.32084 6.92147 6.41381 6.82775L10.7038 2.58775C10.7975 2.49478 10.8719 2.38418 10.9227 2.26232C10.9735 2.14046 10.9996 2.00976 10.9996 1.87775C10.9996 1.74573 10.9735 1.61503 10.9227 1.49317C10.8719 1.37131 10.7975 1.26071 10.7038 1.16775Z" fill="#121212" fill-opacity="0.8"/>
</svg>
