<svg width="26" height="26" viewBox="0 0 26 26" fill="none" xmlns="http://www.w3.org/2000/svg">
<path d="M8.6709 2.16406V5.41406" stroke="#6A6A6A" stroke-width="1.75" stroke-miterlimit="10" stroke-linecap="round" stroke-linejoin="round"/>
<path d="M17.3291 2.16406V5.41406" stroke="#6A6A6A" stroke-width="1.75" stroke-miterlimit="10" stroke-linecap="round" stroke-linejoin="round"/>
<path d="M3.79346 9.84863H22.2101" stroke="#6A6A6A" stroke-width="1.75" stroke-miterlimit="10" stroke-linecap="round" stroke-linejoin="round"/>
<path d="M19.5018 24.9167C21.895 24.9167 23.8351 22.9766 23.8351 20.5833C23.8351 18.1901 21.895 16.25 19.5018 16.25C17.1086 16.25 15.1685 18.1901 15.1685 20.5833C15.1685 22.9766 17.1086 24.9167 19.5018 24.9167Z" stroke="#6A6A6A" stroke-width="1.75" stroke-miterlimit="10" stroke-linecap="round" stroke-linejoin="round"/>
<path d="M21.1263 20.6367H17.8979" stroke="#6A6A6A" stroke-miterlimit="10" stroke-linecap="round" stroke-linejoin="round"/>
<path d="M19.5151 19.0557V22.2948" stroke="#6A6A6A" stroke-miterlimit="10" stroke-linecap="round" stroke-linejoin="round"/>
<path d="M22.75 9.20768V17.7227C21.9592 16.8235 20.8 16.2493 19.5 16.2493C17.1058 16.2493 15.1667 18.1885 15.1667 20.5827C15.1667 21.3952 15.3942 22.1643 15.795 22.8143C16.0225 23.2043 16.315 23.551 16.6508 23.8327H8.66667C4.875 23.8327 3.25 21.666 3.25 18.416V9.20768C3.25 5.95768 4.875 3.79102 8.66667 3.79102H17.3333C21.125 3.79102 22.75 5.95768 22.75 9.20768Z" stroke="#6A6A6A" stroke-width="1.75" stroke-miterlimit="10" stroke-linecap="round" stroke-linejoin="round"/>
<path d="M12.9898 14.8405H12.9995" stroke="#6A6A6A" stroke-width="1.75" stroke-linecap="round" stroke-linejoin="round"/>
<path d="M8.98054 14.8405H8.99027" stroke="#6A6A6A" stroke-width="1.75" stroke-linecap="round" stroke-linejoin="round"/>
<path d="M8.98054 18.0905H8.99027" stroke="#6A6A6A" stroke-width="1.75" stroke-linecap="round" stroke-linejoin="round"/>
</svg>
