<svg width="11" height="8" viewBox="0 0 11 8" fill="none" xmlns="http://www.w3.org/2000/svg">
<path d="M10.2458 1.16775C10.0584 0.981495 9.80498 0.876953 9.5408 0.876953C9.27661 0.876953 9.02316 0.981495 8.8358 1.16775L5.2458 4.70775L1.7058 1.16775C1.51844 0.981495 1.26498 0.876953 1.0008 0.876953C0.736612 0.876953 0.483161 0.981495 0.295798 1.16775C0.20207 1.26071 0.127675 1.37131 0.0769067 1.49317C0.026138 1.61503 0 1.74573 0 1.87775C0 2.00976 0.026138 2.14046 0.0769067 2.26232C0.127675 2.38418 0.20207 2.49478 0.295798 2.58775L4.5358 6.82775C4.62876 6.92147 4.73936 6.99587 4.86122 7.04664C4.98308 7.09741 5.11379 7.12354 5.2458 7.12354C5.37781 7.12354 5.50852 7.09741 5.63037 7.04664C5.75223 6.99587 5.86283 6.92147 5.9558 6.82775L10.2458 2.58775C10.3395 2.49478 10.4139 2.38418 10.4647 2.26232C10.5155 2.14046 10.5416 2.00976 10.5416 1.87775C10.5416 1.74573 10.5155 1.61503 10.4647 1.49317C10.4139 1.37131 10.3395 1.26071 10.2458 1.16775Z" fill="#121212" fill-opacity="0.6"/>
</svg>
