<svg width="44" height="44" viewBox="0 0 44 44" fill="none" xmlns="http://www.w3.org/2000/svg">
<path d="M4.19139 0L3.24749 0.890577L0.890252 3.24868L0 4.19292L0.680682 5.29315L4.19139 11.1632L4.66251 12.0018H9.58991L16.2961 18.6585C10.3041 24.6795 2.68082 32.3308 2.41257 32.6008C-0.214599 35.2273 -0.219629 39.5309 2.46286 42.0349C5.08332 44.6211 9.35351 44.6882 11.8432 42.0349L11.8935 41.9812L22.2144 31.6046L32.5889 42.0332L32.7448 42.1389C35.377 44.6211 39.5634 44.6546 42.0196 42.0332V41.9829H42.0699C44.6383 39.3548 44.6652 35.083 42.0196 32.5991L41.9659 32.5488L33.2176 23.8477C39.104 23.2976 43.7146 18.3248 43.8001 12.3171H43.852C43.8587 12.2836 43.852 12.245 43.852 12.2115V12.1595C44.0163 10.2207 43.5972 8.36572 42.5946 6.76067L41.4445 4.98119L33.6368 12.7901L31.2795 10.3263L39.2432 2.35978L36.9379 1.41721C35.4679 0.768696 33.8804 0.429043 32.2737 0.419292C25.829 0.419292 20.5378 5.71244 20.5378 12.1595C20.5378 12.8605 20.6887 13.4693 20.7994 14.0983C20.0667 14.8329 19.5168 15.435 18.6517 16.3004L11.9974 9.64372V4.66421L11.1592 4.19292L5.29122 0.680931L4.19139 0ZM32.2737 3.77363C32.5084 3.77363 32.6728 3.91116 32.9024 3.93128L26.5634 10.2727L27.7152 11.4785L32.4313 16.3524L33.5831 17.5583L40.2374 10.9016C40.2709 11.2873 40.5459 11.5691 40.4989 12.0018V12.1595C40.4989 16.7784 36.7334 20.5453 32.1161 20.5453C31.5008 20.5453 30.7548 20.4011 29.9165 20.23L29.0246 20.074L28.3959 20.703L9.48428 39.6751H9.43064V39.7288C8.24028 41.0319 6.15632 41.0638 4.76813 39.6751V39.6231H4.71448C3.41179 38.4323 3.37994 36.3476 4.76813 34.9589C5.40354 34.3216 17.7078 21.9072 23.7333 15.8811L24.4157 15.2002L24.1525 14.2559C23.992 13.5682 23.9043 12.8655 23.8909 12.1595C23.8909 7.54055 27.6565 3.77363 32.2737 3.77363ZM4.71448 4.19292L8.64433 6.60469V8.28186L8.27884 8.64748H6.60228L4.19139 4.71788L4.71448 4.19292ZM29.2341 24.5806L39.6623 34.9589V35.0109H39.7126C41.017 36.2017 41.0488 38.2864 39.6623 39.6751H39.6087V39.7288C38.4183 41.0319 36.3344 41.0638 34.9462 39.6751L24.5716 29.2465L29.2341 24.5806Z" fill="#06C428"/>
</svg>
