<svg width="34" height="43" viewBox="0 0 34 43" fill="none" xmlns="http://www.w3.org/2000/svg">
<path d="M25.1252 19.3333C25.1252 20.2308 24.3976 20.9583 23.5002 20.9583L10.5002 20.9583C9.6027 20.9583 8.87516 20.2308 8.87516 19.3333C8.87516 18.4359 9.6027 17.7083 10.5002 17.7083L23.5002 17.7083C24.3976 17.7083 25.1252 18.4359 25.1252 19.3333Z" fill="#121212" fill-opacity="0.45"/>
<path d="M25.1252 10.6667C25.1252 11.5641 24.3976 12.2917 23.5002 12.2917L10.5002 12.2917C9.6027 12.2917 8.87516 11.5641 8.87516 10.6667C8.87516 9.7692 9.6027 9.04166 10.5002 9.04166L23.5002 9.04166C24.3976 9.04166 25.1252 9.7692 25.1252 10.6667Z" fill="#121212" fill-opacity="0.45"/>
<path fill-rule="evenodd" clip-rule="evenodd" d="M6.16683 42.625C2.87613 42.625 0.208496 39.9574 0.208496 36.6667L0.208493 6.33333C0.208493 3.04264 2.87613 0.375 6.16682 0.374999L27.8335 0.374998C31.1242 0.374997 33.7918 3.04263 33.7918 6.33333L33.7918 30.2367C33.7918 31.0617 33.5227 31.8642 33.0254 32.5225L26.5302 41.1191C25.8136 42.0675 24.6937 42.625 23.505 42.625L6.16683 42.625ZM3.4585 36.6667C3.4585 38.1624 4.67106 39.375 6.16683 39.375L21.8752 39.375L21.8752 29.8481C21.8752 28.9506 22.6027 28.2231 23.5002 28.2231L30.5418 28.2231L30.5418 6.33333C30.5418 4.83756 29.3293 3.625 27.8335 3.625L6.16683 3.625C4.67105 3.625 3.45849 4.83756 3.45849 6.33333L3.4585 36.6667Z" fill="#121212" fill-opacity="0.45"/>
</svg>
