<svg width="17" height="18" viewBox="0 0 17 18" fill="none" xmlns="http://www.w3.org/2000/svg">
<path d="M15.583 5.10449H11.333" stroke="#121212" stroke-opacity="0.8" stroke-width="1.5" stroke-miterlimit="10" stroke-linecap="round" stroke-linejoin="round"/>
<path d="M4.25033 5.10449H1.41699" stroke="#121212" stroke-opacity="0.8" stroke-width="1.5" stroke-miterlimit="10" stroke-linecap="round" stroke-linejoin="round"/>
<path d="M7.08366 7.58333C8.45287 7.58333 9.56283 6.47337 9.56283 5.10417C9.56283 3.73496 8.45287 2.625 7.08366 2.625C5.71445 2.625 4.60449 3.73496 4.60449 5.10417C4.60449 6.47337 5.71445 7.58333 7.08366 7.58333Z" stroke="#121212" stroke-opacity="0.8" stroke-width="1.5" stroke-miterlimit="10" stroke-linecap="round" stroke-linejoin="round"/>
<path d="M15.5833 12.8955H12.75" stroke="#121212" stroke-opacity="0.8" stroke-width="1.5" stroke-miterlimit="10" stroke-linecap="round" stroke-linejoin="round"/>
<path d="M5.66699 12.8955H1.41699" stroke="#121212" stroke-opacity="0.8" stroke-width="1.5" stroke-miterlimit="10" stroke-linecap="round" stroke-linejoin="round"/>
<path d="M9.91667 15.3753C11.2859 15.3753 12.3958 14.2654 12.3958 12.8962C12.3958 11.527 11.2859 10.417 9.91667 10.417C8.54746 10.417 7.4375 11.527 7.4375 12.8962C7.4375 14.2654 8.54746 15.3753 9.91667 15.3753Z" stroke="#121212" stroke-opacity="0.8" stroke-width="1.5" stroke-miterlimit="10" stroke-linecap="round" stroke-linejoin="round"/>
</svg>
