<svg width="74" height="74" viewBox="0 0 74 74" fill="none" xmlns="http://www.w3.org/2000/svg">
<path d="M71.3963 36.9989C72.5391 35.6681 73.34 34.0784 73.7294 32.368C74.1189 30.6575 74.0851 28.8779 73.631 27.1834C73.177 25.489 72.3163 23.9309 71.1238 22.6444C69.9312 21.3578 68.4428 20.3817 66.7876 19.8006C67.1119 18.0765 67.0107 16.2994 66.4926 14.6233C65.9746 12.9472 65.0554 11.4229 63.8149 10.1825C62.5743 8.94206 61.0498 8.02309 59.3737 7.50527C57.6975 6.98745 55.9204 6.88642 54.1964 7.21096C53.6157 5.55538 52.6398 4.06654 51.3532 2.8737C50.0667 1.68087 48.5084 0.820105 46.8137 0.366133C45.119 -0.087839 43.3391 -0.121292 41.6286 0.268677C39.918 0.658647 38.3285 1.46025 36.998 2.6039C35.6672 1.46104 34.0775 0.660156 32.3671 0.270725C30.6566 -0.118706 28.877 -0.0849224 27.1825 0.369143C25.4881 0.823208 23.93 1.68384 22.6434 2.87638C21.3569 4.06893 20.3808 5.55736 19.7997 7.21256C18.0758 6.88855 16.2988 6.99003 14.6229 7.50819C12.9471 8.02636 11.4229 8.94557 10.1827 10.1861C8.94253 11.4266 8.02371 12.951 7.50597 14.627C6.98823 16.3029 6.88721 18.0799 7.21166 19.8038C5.55646 20.3849 4.06802 21.361 2.87548 22.6476C1.68293 23.9341 0.822296 25.4922 0.36823 27.1866C-0.0858348 28.8811 -0.119623 30.6607 0.269808 32.3712C0.659239 34.0816 1.46014 35.6713 2.60299 37.0021C1.45979 38.333 0.658645 39.9227 0.269103 41.6333C-0.120438 43.344 -0.0866208 45.1238 0.367643 46.8184C0.821907 48.513 1.68288 50.0712 2.87583 51.3576C4.06878 52.644 5.55768 53.6199 7.21327 54.2004C6.88853 55.9244 6.98944 57.7015 7.50724 59.3776C8.02505 61.0536 8.9441 62.578 10.1846 63.8184C11.4251 65.0587 12.9496 65.9776 14.6258 66.4952C16.3019 67.0127 18.079 67.1134 19.8029 66.7885C20.384 68.4437 21.3601 69.9321 22.6467 71.1247C23.9332 72.3172 25.4913 73.1778 27.1857 73.6319C28.8802 74.086 30.6598 74.1198 32.3703 73.7303C34.0807 73.3409 35.6704 72.54 37.0012 71.3972C38.3321 72.5404 39.9218 73.3415 41.6324 73.731C43.3431 74.1206 45.1229 74.0868 46.8175 73.6325C48.5121 73.1782 50.0703 72.3173 51.3567 71.1243C52.6431 69.9314 53.619 68.4425 54.1996 66.7869C55.9235 67.1115 57.7007 67.0106 59.3768 66.4927C61.0529 65.9749 62.5773 65.0559 63.8178 63.8155C65.0582 62.575 65.9772 61.0506 66.4951 59.3745C67.0129 57.6984 67.1138 55.9212 66.7892 54.1972C68.4445 53.6163 69.9331 52.6402 71.1257 51.3536C72.3183 50.067 73.1789 48.5088 73.6328 46.8143C74.0868 45.1197 74.1203 43.34 73.7306 41.6295C73.3408 39.919 72.5395 38.3295 71.3963 36.9989Z" fill="#3B7471" fill-opacity="0.15"/>
<path d="M30.3327 49.0107L20.5781 39.2622C20.2079 38.8914 20 38.3889 20 37.8649C20 37.3409 20.2079 36.8384 20.5781 36.4676L21.7632 35.281C22.134 34.9108 22.6366 34.7029 23.1605 34.7029C23.6845 34.7029 24.1871 34.9108 24.5578 35.281L31.6486 42.3672L48.3479 24.6213C48.7072 24.24 49.2031 24.0169 49.7268 24.0009C50.2504 23.9849 50.7591 24.1774 51.141 24.5361L52.358 25.6846C52.7397 26.044 52.9631 26.5403 52.9791 27.0643C52.9951 27.5884 52.8023 28.0973 52.4432 28.4793L33.1745 48.9665C32.993 49.1599 32.7746 49.3148 32.5321 49.422C32.2896 49.5293 32.028 49.5867 31.7629 49.5908C31.4978 49.5949 31.2346 49.5457 30.9889 49.446C30.7432 49.3463 30.52 49.1983 30.3327 49.0107Z" fill="#3B7471"/>
</svg>
