<svg width="49" height="39" viewBox="0 0 49 39" fill="none" xmlns="http://www.w3.org/2000/svg">
<path d="M46.55 26.8125H44.1V21.9375C44.1 21.291 43.8419 20.671 43.3824 20.2139C42.923 19.7568 42.2998 19.5 41.65 19.5H7.35C6.70022 19.5 6.07705 19.7568 5.61759 20.2139C5.15812 20.671 4.9 21.291 4.9 21.9375V26.8125H2.45C1.80022 26.8125 1.17705 27.0693 0.717588 27.5264C0.258124 27.9835 0 28.6035 0 29.25C0 29.8965 0.258124 30.5165 0.717588 30.9736C1.17705 31.4307 1.80022 31.6875 2.45 31.6875H4.9V36.5625C4.9 37.209 5.15812 37.829 5.61759 38.2861C6.07705 38.7432 6.70022 39 7.35 39H41.65C42.2998 39 42.923 38.7432 43.3824 38.2861C43.8419 37.829 44.1 37.209 44.1 36.5625V31.6875H46.55C47.1998 31.6875 47.8229 31.4307 48.2824 30.9736C48.7419 30.5165 49 29.8965 49 29.25C49 28.6035 48.7419 27.9835 48.2824 27.5264C47.8229 27.0693 47.1998 26.8125 46.55 26.8125ZM39.2 34.125H9.8V24.375H39.2V34.125ZM2.45 9.75H7.35V12.1875C7.35 12.834 7.60812 13.454 8.06759 13.9111C8.52705 14.3682 9.15022 14.625 9.8 14.625H39.2C39.8498 14.625 40.4729 14.3682 40.9324 13.9111C41.3919 13.454 41.65 12.834 41.65 12.1875V9.75H46.55C47.1998 9.75 47.8229 9.49319 48.2824 9.03607C48.7419 8.57895 49 7.95897 49 7.3125C49 6.66603 48.7419 6.04605 48.2824 5.58893C47.8229 5.13181 47.1998 4.875 46.55 4.875H41.65V2.4375C41.65 1.79103 41.3919 1.17105 40.9324 0.713928C40.4729 0.256808 39.8498 0 39.2 0H9.8C9.15022 0 8.52705 0.256808 8.06759 0.713928C7.60812 1.17105 7.35 1.79103 7.35 2.4375V4.875H2.45C1.80022 4.875 1.17705 5.13181 0.717588 5.58893C0.258124 6.04605 0 6.66603 0 7.3125C0 7.95897 0.258124 8.57895 0.717588 9.03607C1.17705 9.49319 1.80022 9.75 2.45 9.75ZM12.25 4.875H36.75V9.75H12.25V4.875Z" fill="#06C428"/>
</svg>
