<svg width="49" height="32" viewBox="0 0 49 32" fill="none" xmlns="http://www.w3.org/2000/svg">
<path d="M12.25 7.38462H0V2.46154H12.25V7.38462ZM12.25 14.7692H0V19.6923H12.25V14.7692ZM45.5455 32L36.162 22.5723C34.202 23.8523 31.899 24.6154 29.4 24.6154C22.638 24.6154 17.15 19.1015 17.15 12.3077C17.15 5.51385 22.638 0 29.4 0C36.162 0 41.65 5.51385 41.65 12.3077C41.65 14.8185 40.8905 17.1323 39.6165 19.0769L49 28.5292L45.5455 32ZM36.75 12.3077C36.75 8.24615 33.4425 4.92308 29.4 4.92308C25.3575 4.92308 22.05 8.24615 22.05 12.3077C22.05 16.3692 25.3575 19.6923 29.4 19.6923C33.4425 19.6923 36.75 16.3692 36.75 12.3077ZM0 32H24.5V27.0769H0V32Z" fill="#06C428"/>
</svg>
