<svg width="15" height="19" viewBox="0 0 15 19" fill="none" xmlns="http://www.w3.org/2000/svg">
<path fill-rule="evenodd" clip-rule="evenodd" d="M7.5 0C6.4202 0 5.38462 0.442254 4.62108 1.22947C3.85755 2.01669 3.4286 3.08438 3.4286 4.19767C3.4286 5.31097 3.85755 6.37866 4.62108 7.16588C5.38462 7.95309 6.4202 8.39535 7.5 8.39535C8.5798 8.39535 9.61538 7.95309 10.3789 7.16588C11.1425 6.37866 11.5714 5.31097 11.5714 4.19767C11.5714 3.08438 11.1425 2.01669 10.3789 1.22947C9.61538 0.442254 8.5798 0 7.5 0ZM4.7143 4.19767C4.7143 3.43595 5.0078 2.70542 5.53021 2.1668C6.05263 1.62818 6.76119 1.32558 7.5 1.32558C8.23881 1.32558 8.94736 1.62818 9.46978 2.1668C9.9922 2.70542 10.2857 3.43595 10.2857 4.19767C10.2857 4.9594 9.9922 5.68993 9.46978 6.22855C8.94736 6.76717 8.23881 7.06977 7.5 7.06977C6.76119 7.06977 6.05263 6.76717 5.53021 6.22855C5.0078 5.68993 4.7143 4.9594 4.7143 4.19767ZM7.5 9.72093C5.51744 9.72093 3.69002 10.1858 2.3366 10.9705C1.0029 11.7447 4.79156e-05 12.9165 4.79156e-05 14.3605V14.4506C-0.000809222 15.4775 -0.00166643 16.766 1.09461 17.6868C1.63375 18.1393 2.38889 18.4618 3.40888 18.6739C4.43059 18.8878 5.76344 19 7.5 19C9.23656 19 10.5686 18.8878 11.592 18.6739C12.612 18.4618 13.3662 18.1393 13.9062 17.6868C15.0025 16.766 15.0008 15.4775 14.9999 14.4506V14.3605C14.9999 12.9165 13.9971 11.7447 12.6643 10.9705C11.31 10.1858 9.48341 9.72093 7.5 9.72093ZM1.28575 14.3605C1.28575 13.6084 1.81889 12.7919 2.9666 12.1264C4.09459 11.4725 5.69573 11.0465 7.50086 11.0465C9.30427 11.0465 10.9054 11.4725 12.0334 12.1264C13.182 12.7919 13.7142 13.6084 13.7142 14.3605C13.7142 15.5164 13.68 16.1668 13.0937 16.6581C12.7765 16.925 12.2451 17.1857 11.3365 17.3748C10.4306 17.564 9.19199 17.6744 7.5 17.6744C5.80801 17.6744 4.56859 17.564 3.66345 17.3748C2.75489 17.1857 2.22346 16.925 1.90632 16.659C1.32004 16.1668 1.28575 15.5164 1.28575 14.3605Z" fill="#9B9B9B"/>
</svg>
