<svg width="40" height="40" viewBox="0 0 40 40" fill="none" xmlns="http://www.w3.org/2000/svg">
<path fill-rule="evenodd" clip-rule="evenodd" d="M29.2857 0C29.854 0 30.3991 0.225765 30.8009 0.627628C31.2028 1.02949 31.4286 1.57454 31.4286 2.14286V5.71429H37.1429C37.9006 5.71429 38.6273 6.01531 39.1632 6.55112C39.699 7.08694 40 7.81367 40 8.57143V37.1429C40 37.9006 39.699 38.6273 39.1632 39.1632C38.6273 39.699 37.9006 40 37.1429 40H2.85714C2.09938 40 1.37266 39.699 0.836838 39.1632C0.301019 38.6273 0 37.9006 0 37.1429V8.57143C0 7.81367 0.301019 7.08694 0.836838 6.55112C1.37266 6.01531 2.09938 5.71429 2.85714 5.71429H8.57143V2.14286C8.57143 1.57454 8.79719 1.02949 9.19906 0.627628C9.60092 0.225765 10.146 0 10.7143 0C11.2826 0 11.8277 0.225765 12.2295 0.627628C12.6314 1.02949 12.8571 1.57454 12.8571 2.14286V5.71429H27.1429V2.14286C27.1429 1.57454 27.3686 1.02949 27.7705 0.627628C28.1724 0.225765 28.7174 0 29.2857 0ZM4.28571 18.5714V35.7143H35.7143V18.5714H4.28571ZM4.28571 14.2857H35.7143V10H4.28571V14.2857ZM26.5143 22.7714C26.9156 23.1732 27.141 23.7179 27.141 24.2857C27.141 24.8536 26.9156 25.3982 26.5143 25.8L20.0857 32.2286C19.6839 32.6299 19.1393 32.8553 18.5714 32.8553C18.0036 32.8553 17.4589 32.6299 17.0571 32.2286L13.4857 28.6571C13.2752 28.461 13.1063 28.2244 12.9892 27.9615C12.8721 27.6987 12.8091 27.4149 12.804 27.1272C12.7989 26.8395 12.8519 26.5537 12.9596 26.2869C13.0674 26.02 13.2278 25.7777 13.4313 25.5742C13.6348 25.3707 13.8772 25.2103 14.144 25.1025C14.4108 24.9947 14.6966 24.9418 14.9844 24.9469C15.2721 24.952 15.5558 25.0149 15.8187 25.1321C16.0815 25.2492 16.3181 25.418 16.5143 25.6286L18.5714 27.6857L23.4857 22.7714C23.8875 22.3701 24.4321 22.1447 25 22.1447C25.5679 22.1447 26.1125 22.3701 26.5143 22.7714Z" fill="#06C328"/>
</svg>
