<svg width="41" height="41" viewBox="0 0 41 41" fill="none" xmlns="http://www.w3.org/2000/svg">
<path d="M8.78571 38.0714V29.0368L12.5782 32.8146L14.6429 30.75L7.32143 23.4286L0 30.75L2.06464 32.8146L5.85714 29.0368V38.0714C5.85714 39.6865 7.17061 41 8.78571 41H21.9643V38.0714H8.78571ZM33.6786 21.9643C29.5054 21.9643 26.3571 23.8532 26.3571 26.3571V36.6071C26.3571 39.1111 29.5054 41 33.6786 41C37.8518 41 41 39.1111 41 36.6071V26.3571C41 23.8532 37.8518 21.9643 33.6786 21.9643ZM33.6786 24.8929C36.5134 24.8929 38.0714 25.9925 38.0714 26.3571C38.0714 26.7218 36.5134 27.8214 33.6786 27.8214C30.8437 27.8214 29.2857 26.7218 29.2857 26.3571C29.2857 25.9925 30.8437 24.8929 33.6786 24.8929ZM33.6786 38.0714C30.8437 38.0714 29.2857 36.9718 29.2857 36.6071V29.9007C30.4952 30.4323 31.9946 30.75 33.6786 30.75C35.3625 30.75 36.8619 30.4323 38.0714 29.9007V36.6071C38.0714 36.9718 36.5134 38.0714 33.6786 38.0714ZM38.9354 8.18536L35.1429 11.9632V2.92857C35.1429 1.31493 33.8294 0 32.2143 0H19.0357V2.92857H32.2143V11.9632L28.4218 8.18536L26.3571 10.25L33.6786 17.5714L41 10.25L38.9354 8.18536ZM7.32143 19.0357C11.4946 19.0357 14.6429 17.1468 14.6429 14.6429V4.39286C14.6429 1.88893 11.4946 0 7.32143 0C3.14821 0 0 1.88893 0 4.39286V14.6429C0 17.1468 3.14821 19.0357 7.32143 19.0357ZM7.32143 2.92857C10.1563 2.92857 11.7143 4.02825 11.7143 4.39286C11.7143 4.75746 10.1563 5.85714 7.32143 5.85714C4.48657 5.85714 2.92857 4.75746 2.92857 4.39286C2.92857 4.02825 4.48657 2.92857 7.32143 2.92857ZM2.92857 7.93643C4.13807 8.46796 5.6375 8.78571 7.32143 8.78571C9.00536 8.78571 10.5048 8.46796 11.7143 7.93643V14.6429C11.7143 15.0075 10.1563 16.1071 7.32143 16.1071C4.48657 16.1071 2.92857 15.0075 2.92857 14.6429V7.93643Z" fill="#06C428"/>
</svg>
