<svg width="39" height="185" viewBox="0 0 39 185" fill="none" xmlns="http://www.w3.org/2000/svg">
<line x1="19.5" y1="17" x2="19.5" y2="170" stroke="white"/>
<circle cx="19.5" cy="19.5" r="19.5" fill="#06C428"/>
<circle cx="19.5" cy="92.3853" r="19.5" fill="#D9D9D9"/>
<circle cx="19.5" cy="165.271" r="19.5" fill="#D9D9D9"/>
<path d="M15.5909 26.0577C14.9949 26.0577 14.4853 25.9567 14.0623 25.7548C13.6489 25.5433 13.3316 25.2309 13.1105 24.8174C12.8989 24.404 12.7932 23.8993 12.7932 23.3032V18.1115C12.7932 17.4865 12.9037 16.9626 13.1249 16.5395C13.346 16.1069 13.6681 15.7848 14.0911 15.5733C14.5238 15.3522 15.0285 15.2416 15.6054 15.2416H17.8263C18.432 15.2416 18.9319 15.357 19.3261 15.5877C19.7299 15.8088 20.0327 16.1357 20.2346 16.5684C20.4365 16.9914 20.5375 17.5058 20.5375 18.1115V23.3032C20.5375 24.1973 20.2971 24.8799 19.8164 25.351C19.3453 25.8221 18.6819 26.0577 17.8263 26.0577H15.5909ZM16.0957 24.1396H17.2494C17.6436 24.1396 17.932 24.0435 18.1147 23.8512C18.307 23.6589 18.4031 23.3705 18.4031 22.9859V18.3134C18.4031 17.8903 18.307 17.5923 18.1147 17.4192C17.9224 17.2462 17.6628 17.1596 17.3359 17.1596H16.0236C15.6679 17.1596 15.3938 17.2558 15.2016 17.4481C15.0189 17.6404 14.9276 17.9288 14.9276 18.3134V22.9715C14.9276 23.3753 15.0285 23.6733 15.2304 23.8656C15.4323 24.0483 15.7207 24.1396 16.0957 24.1396ZM23.6736 26V17.275L21.7844 17.5202V16.1501L23.9043 15.2272H25.808V26H23.6736Z" fill="white"/>
<path d="M14.5909 97.0577C13.9949 97.0577 13.4853 96.9567 13.0623 96.7548C12.6489 96.5433 12.3316 96.2309 12.1105 95.8174C11.8989 95.404 11.7932 94.8993 11.7932 94.3032V89.1115C11.7932 88.4865 11.9037 87.9626 12.1249 87.5395C12.346 87.1069 12.6681 86.7848 13.0911 86.5733C13.5238 86.3522 14.0285 86.2416 14.6054 86.2416H16.8263C17.432 86.2416 17.9319 86.357 18.3261 86.5877C18.7299 86.8088 19.0327 87.1357 19.2346 87.5684C19.4365 87.9914 19.5375 88.5058 19.5375 89.1115V94.3032C19.5375 95.1973 19.2971 95.8799 18.8164 96.351C18.3453 96.8221 17.6819 97.0577 16.8263 97.0577H14.5909ZM15.0957 95.1396H16.2494C16.6436 95.1396 16.932 95.0435 17.1147 94.8512C17.307 94.6589 17.4031 94.3705 17.4031 93.9859V89.3134C17.4031 88.8903 17.307 88.5923 17.1147 88.4192C16.9224 88.2462 16.6628 88.1596 16.3359 88.1596H15.0236C14.6679 88.1596 14.3938 88.2558 14.2016 88.4481C14.0189 88.6404 13.9276 88.9288 13.9276 89.3134V93.9715C13.9276 94.3753 14.0285 94.6733 14.2304 94.8656C14.4323 95.0483 14.7207 95.1396 15.0957 95.1396ZM21.0007 97V95.2838L24.5628 91.7506C24.8512 91.4718 25.0868 91.2122 25.2695 90.9718C25.4521 90.7315 25.5867 90.4959 25.6733 90.2652C25.7694 90.0248 25.8175 89.77 25.8175 89.5008C25.8175 89.2413 25.7646 89.0201 25.6588 88.8375C25.5627 88.6452 25.3993 88.501 25.1685 88.4048C24.9474 88.3087 24.6397 88.2606 24.2455 88.2606H21.2459V86.5877C21.7074 86.5012 22.2169 86.4243 22.7746 86.357C23.3418 86.2801 23.9715 86.2416 24.6638 86.2416C25.5002 86.2416 26.154 86.357 26.6251 86.5877C27.1058 86.8185 27.4471 87.1501 27.649 87.5828C27.8509 88.0154 27.9519 88.5394 27.9519 89.1547C27.9519 89.6354 27.8846 90.0729 27.75 90.4671C27.625 90.8613 27.4375 91.241 27.1875 91.6064C26.9375 91.9621 26.6203 92.3226 26.2357 92.688L23.8417 95.0675H28.2835V97H21.0007Z" fill="black"/>
<path d="M14.5909 172.058C13.9949 172.058 13.4853 171.957 13.0623 171.755C12.6489 171.543 12.3316 171.231 12.1105 170.817C11.8989 170.404 11.7932 169.899 11.7932 169.303V164.111C11.7932 163.487 11.9037 162.963 12.1249 162.54C12.346 162.107 12.6681 161.785 13.0911 161.573C13.5238 161.352 14.0285 161.242 14.6054 161.242H16.8263C17.432 161.242 17.9319 161.357 18.3261 161.588C18.7299 161.809 19.0327 162.136 19.2346 162.568C19.4365 162.991 19.5375 163.506 19.5375 164.111V169.303C19.5375 170.197 19.2971 170.88 18.8164 171.351C18.3453 171.822 17.6819 172.058 16.8263 172.058H14.5909ZM15.0957 170.14H16.2494C16.6436 170.14 16.932 170.043 17.1147 169.851C17.307 169.659 17.4031 169.37 17.4031 168.986V164.313C17.4031 163.89 17.307 163.592 17.1147 163.419C16.9224 163.246 16.6628 163.16 16.3359 163.16H15.0236C14.6679 163.16 14.3938 163.256 14.2016 163.448C14.0189 163.64 13.9276 163.929 13.9276 164.313V168.971C13.9276 169.375 14.0285 169.673 14.2304 169.866C14.4323 170.048 14.7207 170.14 15.0957 170.14ZM24.9666 172.087C24.1975 172.087 23.462 172.058 22.7601 172C22.0679 171.952 21.443 171.88 20.8853 171.784V170.068H24.159C24.5532 170.068 24.8753 170.039 25.1252 169.981C25.3752 169.923 25.5579 169.822 25.6733 169.678C25.7983 169.534 25.8607 169.332 25.8607 169.072V168.625C25.8607 168.366 25.7983 168.164 25.6733 168.02C25.5483 167.866 25.38 167.755 25.1685 167.688C24.9666 167.611 24.7311 167.568 24.4619 167.558L21.8372 167.457V165.813L24.3753 165.669C24.808 165.65 25.1445 165.573 25.3848 165.438C25.6252 165.304 25.7454 165.073 25.7454 164.746V164.385C25.7454 164.001 25.6156 163.717 25.356 163.535C25.106 163.352 24.683 163.261 24.0869 163.261H21.1161V161.559C21.6641 161.472 22.2602 161.395 22.9043 161.328C23.5485 161.251 24.2263 161.222 24.9378 161.242C25.5627 161.251 26.0915 161.357 26.5241 161.559C26.9568 161.751 27.2837 162.044 27.5048 162.439C27.7355 162.823 27.8509 163.304 27.8509 163.881V164.674C27.8509 164.943 27.8173 165.188 27.75 165.409C27.6923 165.631 27.6009 165.823 27.4759 165.986C27.351 166.14 27.2067 166.275 27.0433 166.39C26.8799 166.496 26.7068 166.578 26.5241 166.635C26.726 166.683 26.9135 166.775 27.0866 166.909C27.2692 167.044 27.4279 167.207 27.5625 167.4C27.6971 167.582 27.8028 167.803 27.8797 168.063C27.9663 168.323 28.0095 168.606 28.0095 168.914V169.462C28.0095 170.317 27.7403 170.971 27.2019 171.423C26.6635 171.865 25.9184 172.087 24.9666 172.087Z" fill="black"/>
</svg>
