<svg width="21" height="17" viewBox="0 0 21 17" fill="none" xmlns="http://www.w3.org/2000/svg">
<path d="M20.385 1.96745C19.6215 2.30492 18.8119 2.52669 17.983 2.62545C18.8558 2.10224 19.5089 1.27997 19.821 0.31145C19.001 0.79945 18.102 1.14145 17.166 1.32645C16.5366 0.653029 15.7024 0.206413 14.793 0.0560348C13.8836 -0.0943437 12.9499 0.0599411 12.1373 0.494903C11.3246 0.929865 10.6784 1.62113 10.2991 2.46124C9.91984 3.30135 9.82875 4.24323 10.04 5.14045C8.37688 5.05749 6.74983 4.62553 5.26457 3.87265C3.77931 3.11977 2.46907 2.06281 1.419 0.77045C1.04738 1.40894 0.852051 2.13469 0.853 2.87345C0.853 4.32345 1.592 5.60445 2.713 6.35445C2.04919 6.33232 1.4001 6.15309 0.819 5.83145V5.88245C0.81897 6.84832 1.15303 7.78447 1.76453 8.53212C2.37603 9.27977 3.22731 9.79289 4.174 9.98445C3.55767 10.1518 2.91128 10.1765 2.284 10.0564C2.55092 10.8878 3.07121 11.6149 3.772 12.1358C4.47278 12.6568 5.31896 12.9455 6.192 12.9614C5.32419 13.6426 4.33071 14.1462 3.26828 14.4433C2.20584 14.7405 1.09528 14.8255 0 14.6934C1.9117 15.9229 4.1371 16.5756 6.41 16.5734C14.104 16.5734 18.31 10.2005 18.31 4.67345C18.31 4.49278 18.306 4.31245 18.298 4.13245C19.1164 3.54076 19.8227 2.80797 20.384 1.96845" fill="white"/>
</svg>
