<svg width="202" height="60" viewBox="0 0 202 60" fill="none" xmlns="http://www.w3.org/2000/svg">
<rect width="202" height="60" rx="14" fill="#F5F4F3"/>
<path fill-rule="evenodd" clip-rule="evenodd" d="M40.9998 29.9226L32.5521 25.5905C32.3139 24.3428 31.2171 23.3998 29.9 23.3998C28.4841 23.3998 27.3227 24.4898 27.2091 25.8765L19.1457 32.5289C18.6629 32.0767 18.014 31.7998 17.3003 31.7998C16.4484 31.7998 15.6885 32.1945 15.1937 32.8109L5.1226 27.8872C6.16849 18.9417 13.7735 12 22.9999 12C32.9152 12 40.9581 20.0171 40.9998 29.9226ZM14.612 34.7527L5 30.0535C5.02886 39.97 13.0766 48 22.9999 48C32.2651 48 39.8953 40.9998 40.8901 31.9997L40.8437 32.0902L32.1304 27.6219C31.6441 28.3331 30.8266 28.7998 29.9 28.7998C29.1031 28.7998 28.3868 28.4545 27.8926 27.9054L19.9991 34.4175C19.9999 34.4449 20.0003 34.4723 20.0003 34.4998C20.0003 35.991 18.7915 37.1998 17.3003 37.1998C15.8944 37.1998 14.7395 36.1253 14.612 34.7527Z" fill="#1D2433"/>
<path d="M61.796 20.456V32.552C61.796 33.8773 62.1413 34.8947 62.832 35.604C63.5227 36.2947 64.4933 36.64 65.744 36.64C67.0133 36.64 67.9933 36.2947 68.684 35.604C69.3747 34.8947 69.72 33.8773 69.72 32.552V20.456H73.668V32.524C73.668 34.1853 73.304 35.5947 72.576 36.752C71.8667 37.8907 70.9053 38.7493 69.692 39.328C68.4973 39.9067 67.1627 40.196 65.688 40.196C64.232 40.196 62.9067 39.9067 61.712 39.328C60.536 38.7493 59.6027 37.8907 58.912 36.752C58.2213 35.5947 57.876 34.1853 57.876 32.524V20.456H61.796ZM83.3914 40.252C82.1221 40.252 80.9834 40.028 79.9754 39.58C78.9674 39.1133 78.1648 38.488 77.5674 37.704C76.9888 36.92 76.6714 36.052 76.6154 35.1H80.5634C80.6381 35.6973 80.9274 36.192 81.4314 36.584C81.9541 36.976 82.5981 37.172 83.3634 37.172C84.1101 37.172 84.6888 37.0227 85.0994 36.724C85.5288 36.4253 85.7434 36.0427 85.7434 35.576C85.7434 35.072 85.4821 34.6987 84.9594 34.456C84.4554 34.1947 83.6434 33.9147 82.5234 33.616C81.3661 33.336 80.4141 33.0467 79.6674 32.748C78.9394 32.4493 78.3048 31.992 77.7634 31.376C77.2408 30.76 76.9794 29.9293 76.9794 28.884C76.9794 28.0253 77.2221 27.2413 77.7074 26.532C78.2114 25.8227 78.9208 25.2627 79.8354 24.852C80.7688 24.4413 81.8608 24.236 83.1114 24.236C84.9594 24.236 86.4341 24.7027 87.5354 25.636C88.6368 26.5507 89.2434 27.792 89.3554 29.36H85.6034C85.5474 28.744 85.2861 28.2587 84.8194 27.904C84.3714 27.5307 83.7648 27.344 82.9994 27.344C82.2901 27.344 81.7394 27.4747 81.3474 27.736C80.9741 27.9973 80.7874 28.3613 80.7874 28.828C80.7874 29.3507 81.0488 29.752 81.5714 30.032C82.0941 30.2933 82.9061 30.564 84.0074 30.844C85.1274 31.124 86.0514 31.4133 86.7794 31.712C87.5074 32.0107 88.1328 32.4773 88.6554 33.112C89.1968 33.728 89.4768 34.5493 89.4954 35.576C89.4954 36.472 89.2434 37.2747 88.7394 37.984C88.2541 38.6933 87.5448 39.2533 86.6114 39.664C85.6968 40.056 84.6234 40.252 83.3914 40.252ZM107.133 31.908C107.133 32.468 107.096 32.972 107.021 33.42H95.6813C95.7746 34.54 96.1666 35.4173 96.8573 36.052C97.5479 36.6867 98.3973 37.004 99.4053 37.004C100.861 37.004 101.897 36.3787 102.513 35.128H106.741C106.293 36.6213 105.435 37.8533 104.165 38.824C102.896 39.776 101.337 40.252 99.4893 40.252C97.9959 40.252 96.6519 39.9253 95.4573 39.272C94.2813 38.6 93.3573 37.6573 92.6853 36.444C92.0319 35.2307 91.7052 33.8307 91.7052 32.244C91.7052 30.6387 92.0319 29.2293 92.6853 28.016C93.3386 26.8027 94.2533 25.8693 95.4293 25.216C96.6053 24.5627 97.9586 24.236 99.4893 24.236C100.964 24.236 102.28 24.5533 103.437 25.188C104.613 25.8227 105.519 26.728 106.153 27.904C106.807 29.0613 107.133 30.396 107.133 31.908ZM103.073 30.788C103.055 29.78 102.691 28.9773 101.981 28.38C101.272 27.764 100.404 27.456 99.3773 27.456C98.4066 27.456 97.5853 27.7547 96.9133 28.352C96.2599 28.9307 95.8586 29.7427 95.7093 30.788H103.073ZM113.915 26.896C114.419 26.0747 115.072 25.4307 115.875 24.964C116.696 24.4973 117.629 24.264 118.675 24.264V28.38H117.639C116.407 28.38 115.473 28.6693 114.839 29.248C114.223 29.8267 113.915 30.8347 113.915 32.272V40H109.995V24.488H113.915V26.896ZM131.907 36.892H138.347V40H127.987V20.456H131.907V36.892ZM147.726 40.252C146.233 40.252 144.889 39.9253 143.694 39.272C142.5 38.6 141.557 37.6573 140.866 36.444C140.194 35.2307 139.858 33.8307 139.858 32.244C139.858 30.6573 140.204 29.2573 140.894 28.044C141.604 26.8307 142.565 25.8973 143.778 25.244C144.992 24.572 146.345 24.236 147.838 24.236C149.332 24.236 150.685 24.572 151.898 25.244C153.112 25.8973 154.064 26.8307 154.754 28.044C155.464 29.2573 155.818 30.6573 155.818 32.244C155.818 33.8307 155.454 35.2307 154.726 36.444C154.017 37.6573 153.046 38.6 151.814 39.272C150.601 39.9253 149.238 40.252 147.726 40.252ZM147.726 36.836C148.436 36.836 149.098 36.668 149.714 36.332C150.349 35.9773 150.853 35.4547 151.226 34.764C151.6 34.0733 151.786 33.2333 151.786 32.244C151.786 30.7693 151.394 29.64 150.61 28.856C149.845 28.0533 148.902 27.652 147.782 27.652C146.662 27.652 145.72 28.0533 144.954 28.856C144.208 29.64 143.834 30.7693 143.834 32.244C143.834 33.7187 144.198 34.8573 144.926 35.66C145.673 36.444 146.606 36.836 147.726 36.836ZM164.77 24.236C165.927 24.236 166.944 24.4693 167.822 24.936C168.699 25.384 169.39 25.972 169.894 26.7V24.488H173.842V40.112C173.842 41.5493 173.552 42.828 172.974 43.948C172.395 45.0867 171.527 45.9827 170.37 46.636C169.212 47.308 167.812 47.644 166.17 47.644C163.967 47.644 162.156 47.1307 160.738 46.104C159.338 45.0773 158.544 43.6773 158.358 41.904H162.25C162.455 42.6133 162.894 43.1733 163.566 43.584C164.256 44.0133 165.087 44.228 166.058 44.228C167.196 44.228 168.12 43.8827 168.83 43.192C169.539 42.52 169.894 41.4933 169.894 40.112V37.704C169.39 38.432 168.69 39.0387 167.794 39.524C166.916 40.0093 165.908 40.252 164.77 40.252C163.463 40.252 162.268 39.916 161.186 39.244C160.103 38.572 159.244 37.6293 158.61 36.416C157.994 35.184 157.686 33.7747 157.686 32.188C157.686 30.62 157.994 29.2293 158.61 28.016C159.244 26.8027 160.094 25.8693 161.158 25.216C162.24 24.5627 163.444 24.236 164.77 24.236ZM169.894 32.244C169.894 31.292 169.707 30.48 169.334 29.808C168.96 29.1173 168.456 28.5947 167.822 28.24C167.187 27.8667 166.506 27.68 165.778 27.68C165.05 27.68 164.378 27.8573 163.762 28.212C163.146 28.5667 162.642 29.0893 162.25 29.78C161.876 30.452 161.69 31.2547 161.69 32.188C161.69 33.1213 161.876 33.9427 162.25 34.652C162.642 35.3427 163.146 35.8747 163.762 36.248C164.396 36.6213 165.068 36.808 165.778 36.808C166.506 36.808 167.187 36.6307 167.822 36.276C168.456 35.9027 168.96 35.38 169.334 34.708C169.707 34.0173 169.894 33.196 169.894 32.244ZM184.558 40.252C183.065 40.252 181.721 39.9253 180.526 39.272C179.332 38.6 178.389 37.6573 177.698 36.444C177.026 35.2307 176.69 33.8307 176.69 32.244C176.69 30.6573 177.036 29.2573 177.726 28.044C178.436 26.8307 179.397 25.8973 180.61 25.244C181.824 24.572 183.177 24.236 184.67 24.236C186.164 24.236 187.517 24.572 188.73 25.244C189.944 25.8973 190.896 26.8307 191.586 28.044C192.296 29.2573 192.65 30.6573 192.65 32.244C192.65 33.8307 192.286 35.2307 191.558 36.444C190.849 37.6573 189.878 38.6 188.646 39.272C187.433 39.9253 186.07 40.252 184.558 40.252ZM184.558 36.836C185.268 36.836 185.93 36.668 186.546 36.332C187.181 35.9773 187.685 35.4547 188.058 34.764C188.432 34.0733 188.618 33.2333 188.618 32.244C188.618 30.7693 188.226 29.64 187.442 28.856C186.677 28.0533 185.734 27.652 184.614 27.652C183.494 27.652 182.552 28.0533 181.786 28.856C181.04 29.64 180.666 30.7693 180.666 32.244C180.666 33.7187 181.03 34.8573 181.758 35.66C182.505 36.444 183.438 36.836 184.558 36.836Z" fill="#1D2433"/>
</svg>
