<svg width="50" height="47" viewBox="0 0 50 47" fill="none" xmlns="http://www.w3.org/2000/svg">
<path d="M43.7487 28.2H49.9985V47H24.9992V28.2H31.249V21.9333H43.7487V28.2ZM34.374 28.2H40.6238V25.0667H34.374V28.2ZM46.8736 37.6H43.7487V40.7333H40.6238V37.6H34.374V40.7333H31.249V37.6H28.1241V43.8667H46.8736V37.6ZM28.1241 31.3333V34.4667H46.8736V31.3333H28.1241ZM21.8743 18.8C21.8743 20.3177 21.5407 21.7375 20.8734 23.0594C20.2061 24.3813 19.254 25.491 18.017 26.3885C18.7494 26.7639 19.4411 27.1964 20.0922 27.6859C20.7432 28.1755 21.3372 28.7222 21.8743 29.326V37.6C21.8743 36.3108 21.6302 35.095 21.1419 33.9526C20.6537 32.8102 19.9864 31.8148 19.14 30.9661C18.2937 30.1175 17.2928 29.4403 16.1372 28.9344C14.9816 28.4285 13.7691 28.1837 12.4996 28.2C11.1976 28.2 9.98505 28.4448 8.86203 28.9344C7.73902 29.424 6.74621 30.0931 5.88361 30.9417C5.02101 31.7903 4.34557 32.7939 3.8573 33.9526C3.36904 35.1113 3.1249 36.3271 3.1249 37.6H0C0 36.4087 0.162755 35.2582 0.488266 34.1484C0.813777 33.0387 1.27763 31.9861 1.87983 30.9906C2.48202 29.9951 3.22256 29.1139 4.10144 28.3469C4.98032 27.5799 5.94057 26.9189 6.98221 26.3641C5.76154 25.4828 4.81756 24.3813 4.15026 23.0594C3.48297 21.7375 3.14118 20.3177 3.1249 18.8C3.1249 17.5108 3.36904 16.295 3.8573 15.1526C4.34557 14.0102 5.01287 13.0148 5.8592 12.1661C6.70552 11.3175 7.69833 10.6403 8.83762 10.1344C9.97691 9.62847 11.1976 9.38368 12.4996 9.4C13.6715 9.4 14.7863 9.60399 15.8442 10.012C16.9022 10.42 17.8705 11.0238 18.7494 11.8234C19.2702 11.3502 19.848 10.934 20.4828 10.575C19.9294 10.0038 19.5062 9.34288 19.2133 8.59219C18.9203 7.84149 18.7657 7.06632 18.7494 6.26667C18.7494 5.40174 18.9122 4.59392 19.2377 3.84323C19.5632 3.09253 20.0108 2.42344 20.5804 1.83594C21.1501 1.24844 21.8092 0.799653 22.5579 0.489583C23.3066 0.179514 24.1204 0.0163194 24.9992 0C25.8618 0 26.6675 0.163194 27.4162 0.489583C28.1648 0.815972 28.8321 1.26476 29.418 1.83594C30.004 2.40712 30.4515 3.06806 30.7608 3.81875C31.07 4.56944 31.2328 5.38542 31.249 6.26667C31.249 7.06632 31.1026 7.84149 30.8096 8.59219C30.5166 9.34288 30.0853 10.0038 29.5157 10.575C30.8666 11.3257 31.9652 12.3375 32.8115 13.6104C33.6578 12.3375 34.7564 11.3257 36.1073 10.575C35.5539 10.0038 35.1308 9.34288 34.8378 8.59219C34.5448 7.84149 34.3902 7.06632 34.374 6.26667C34.374 5.40174 34.5367 4.59392 34.8622 3.84323C35.1877 3.09253 35.6353 2.42344 36.2049 1.83594C36.7746 1.24844 37.4338 0.799653 38.1824 0.489583C38.9311 0.179514 39.7449 0.0163194 40.6238 0C41.4864 0 42.292 0.163194 43.0407 0.489583C43.7894 0.815972 44.4566 1.26476 45.0426 1.83594C45.6285 2.40712 46.0761 3.06806 46.3853 3.81875C46.6945 4.56944 46.8573 5.38542 46.8736 6.26667C46.8736 7.06632 46.7271 7.84149 46.4341 8.59219C46.1412 9.34288 45.7099 10.0038 45.1402 10.575C45.8889 10.983 46.5643 11.4807 47.1665 12.0682C47.7687 12.6557 48.2733 13.3003 48.6802 14.0021C49.087 14.7038 49.4126 15.4708 49.6567 16.3031C49.9008 17.1354 50.0148 17.9677 49.9985 18.8H46.8736C46.8736 17.9351 46.7108 17.1273 46.3853 16.3766C46.0598 15.6259 45.6122 14.9568 45.0426 14.3693C44.4729 13.7818 43.8138 13.333 43.0651 13.0229C42.3164 12.7128 41.5026 12.5497 40.6238 12.5333C39.7612 12.5333 38.9555 12.6965 38.2068 13.0229C37.4582 13.3493 36.7909 13.7981 36.2049 14.3693C35.619 14.9405 35.1715 15.6014 34.8622 16.3521C34.553 17.1028 34.3902 17.9188 34.374 18.8H31.249C31.249 17.9351 31.0863 17.1273 30.7608 16.3766C30.4353 15.6259 29.9877 14.9568 29.418 14.3693C28.8484 13.7818 28.1892 13.333 27.4406 13.0229C26.6919 12.7128 25.8781 12.5497 24.9992 12.5333C24.2017 12.5333 23.4286 12.6802 22.68 12.974C21.9313 13.2677 21.2721 13.7002 20.7025 14.2714C21.0931 14.9568 21.3861 15.683 21.5814 16.45C21.7767 17.217 21.8743 18.0003 21.8743 18.8ZM40.6238 3.13333C40.1843 3.13333 39.7774 3.21493 39.4031 3.37813C39.0288 3.54132 38.7032 3.76163 38.4266 4.03906C38.1499 4.31649 37.922 4.65104 37.743 5.04271C37.564 5.43438 37.4826 5.84236 37.4989 6.26667C37.4989 6.70729 37.5802 7.11528 37.743 7.49063C37.9057 7.86597 38.1255 8.19236 38.4021 8.46979C38.6788 8.74722 39.0125 8.97569 39.4031 9.15521C39.7937 9.33472 40.2006 9.41632 40.6238 9.4C41.0632 9.4 41.4701 9.3184 41.8444 9.15521C42.2188 8.99201 42.5443 8.7717 42.821 8.49427C43.0976 8.21684 43.3255 7.88229 43.5045 7.49063C43.6836 7.09896 43.7649 6.69097 43.7487 6.26667C43.7487 5.82604 43.6673 5.41806 43.5045 5.04271C43.3418 4.66736 43.1221 4.34097 42.8454 4.06354C42.5687 3.78611 42.235 3.55764 41.8444 3.37813C41.4538 3.19861 41.0469 3.11701 40.6238 3.13333ZM24.9992 3.13333C24.5598 3.13333 24.1529 3.21493 23.7786 3.37813C23.4042 3.54132 23.0787 3.76163 22.802 4.03906C22.5254 4.31649 22.2975 4.65104 22.1185 5.04271C21.9394 5.43438 21.8581 5.84236 21.8743 6.26667C21.8743 6.70729 21.9557 7.11528 22.1185 7.49063C22.2812 7.86597 22.5009 8.19236 22.7776 8.46979C23.0543 8.74722 23.388 8.97569 23.7786 9.15521C24.1692 9.33472 24.5761 9.41632 24.9992 9.4C25.4387 9.4 25.8456 9.3184 26.2199 9.15521C26.5942 8.99201 26.9198 8.7717 27.1964 8.49427C27.4731 8.21684 27.701 7.88229 27.88 7.49063C28.059 7.09896 28.1404 6.69097 28.1241 6.26667C28.1241 5.82604 28.0428 5.41806 27.88 5.04271C27.7173 4.66736 27.4975 4.34097 27.2208 4.06354C26.9442 3.78611 26.6105 3.55764 26.2199 3.37813C25.8293 3.19861 25.4224 3.11701 24.9992 3.13333ZM12.4996 25.0667C13.3622 25.0667 14.1679 24.9035 14.9165 24.5771C15.6652 24.2507 16.3325 23.8019 16.9184 23.2307C17.5043 22.6595 17.9519 21.9986 18.2612 21.2479C18.5704 20.4972 18.7332 19.6813 18.7494 18.8C18.7494 17.9351 18.5867 17.1273 18.2612 16.3766C17.9356 15.6259 17.4881 14.9568 16.9184 14.3693C16.3488 13.7818 15.6896 13.333 14.941 13.0229C14.1923 12.7128 13.3785 12.5497 12.4996 12.5333C11.637 12.5333 10.8314 12.6965 10.0827 13.0229C9.33403 13.3493 8.66673 13.7981 8.08081 14.3693C7.49489 14.9405 7.04731 15.6014 6.73808 16.3521C6.42884 17.1028 6.26608 17.9188 6.24981 18.8C6.24981 19.6649 6.41256 20.4727 6.73808 21.2234C7.06359 21.9741 7.51116 22.6432 8.08081 23.2307C8.65045 23.8182 9.30961 24.267 10.0583 24.5771C10.807 24.8872 11.6207 25.0503 12.4996 25.0667Z" fill="#06C428"/>
</svg>
